<?xml version="1.0" encoding="iso-8859-1"?>
<!-- Generator: Adobe Illustrator 19.0.0, SVG Export Plug-In . SVG Version: 6.00 Build 0)  -->
<svg xmlns="http://www.w3.org/2000/svg" xmlns:xlink="http://www.w3.org/1999/xlink" version="1.1" id="Layer_1" x="0px" y="0px" viewBox="0 0 512.001 512.001" style="enable-background:new 0 0 512.001 512.001;" xml:space="preserve" width="512px" height="512px">
<g>
	<g>
		<path d="M436.084,318.385c-0.174-0.929-0.465-1.844-0.828-2.716c-0.363-0.886-0.813-1.728-1.336-2.512    c-0.521-0.799-1.131-1.539-1.799-2.207c-0.669-0.668-1.41-1.278-2.209-1.801c-0.784-0.523-1.626-0.973-2.511-1.336    c-0.873-0.363-1.786-0.639-2.716-0.828c-1.873-0.378-3.805-0.378-5.678,0c-0.915,0.189-1.83,0.465-2.716,0.828    c-0.871,0.363-1.714,0.813-2.498,1.336c-0.8,0.523-1.541,1.133-2.209,1.801c-0.668,0.668-1.278,1.409-1.815,2.207    c-0.521,0.784-0.973,1.626-1.336,2.512c-0.363,0.871-0.638,1.786-0.828,2.716c-0.189,0.929-0.274,1.888-0.274,2.832    s0.087,1.902,0.274,2.846c0.189,0.915,0.465,1.83,0.828,2.716c0.363,0.871,0.815,1.714,1.336,2.498    c0.537,0.799,1.147,1.539,1.815,2.207c0.668,0.668,1.409,1.278,2.209,1.801c0.784,0.537,1.626,0.973,2.498,1.336    c0.886,0.363,1.801,0.653,2.716,0.842c0.942,0.189,1.902,0.276,2.846,0.276c0.942,0,1.902-0.087,2.832-0.276    c0.929-0.189,1.844-0.479,2.716-0.842c0.884-0.363,1.727-0.799,2.511-1.336c0.799-0.523,1.539-1.133,2.209-1.801    c0.668-0.668,1.278-1.409,1.799-2.207c0.523-0.784,0.973-1.626,1.336-2.498c0.363-0.886,0.654-1.801,0.828-2.716    c0.189-0.944,0.29-1.902,0.29-2.846S436.272,319.315,436.084,318.385z" fill="#ff2244"/>
	</g>
</g>
<g>
	<g>
		<path d="M139.856,30.812c-0.189-0.929-0.463-1.844-0.826-2.716c-0.363-0.871-0.815-1.714-1.336-2.512    c-0.537-0.784-1.147-1.539-1.815-2.207c-0.669-0.668-1.41-1.278-2.209-1.801c-0.784-0.523-1.626-0.973-2.498-1.336    c-0.886-0.363-1.801-0.639-2.716-0.828c-1.873-0.378-3.805-0.378-5.678,0c-0.929,0.189-1.844,0.465-2.716,0.828    c-0.884,0.363-1.727,0.813-2.511,1.336c-0.8,0.523-1.541,1.133-2.209,1.801c-0.668,0.668-1.278,1.423-1.801,2.207    c-0.521,0.799-0.973,1.641-1.336,2.512c-0.363,0.871-0.638,1.786-0.826,2.716c-0.189,0.944-0.29,1.888-0.29,2.846    c0,3.819,1.554,7.551,4.255,10.252c0.667,0.682,1.406,1.278,2.206,1.815c0.784,0.523,1.626,0.973,2.511,1.336    c0.873,0.363,1.786,0.639,2.716,0.828s1.888,0.276,2.832,0.276c0.942,0,1.902-0.087,2.846-0.276    c0.915-0.189,1.83-0.465,2.716-0.828c0.871-0.363,1.714-0.813,2.498-1.336c0.799-0.537,1.539-1.133,2.209-1.815    c2.714-2.701,4.255-6.433,4.255-10.252C140.131,32.7,140.043,31.756,139.856,30.812z" fill="#ff2244"/>
	</g>
</g>
<g>
	<g>
		<path d="M188.419,367.258c-1.847,0-3.69,0.081-5.523,0.243c-4.13-9.184-10.38-17.121-18.074-23.271v-63.165    c0-8.02-6.503-14.522-14.522-14.522h-10.167V77.216c0-8.02-6.503-14.522-14.522-14.522c-8.019,0-14.522,6.501-14.522,14.522    v189.327h-10.164c-8.019,0-14.522,6.501-14.522,14.522v63.165c-7.694,6.15-13.945,14.087-18.075,23.272    c-1.833-0.161-3.675-0.243-5.524-0.243C28.175,367.259,0,395.434,0,430.066c0,34.631,28.175,62.806,62.806,62.806h125.613    c34.631,0,62.806-28.175,62.806-62.806C251.225,395.434,223.05,367.258,188.419,367.258z M115.449,295.586h20.33v35.712    c-0.086-0.015-0.173-0.023-0.258-0.038c-0.603-0.096-1.208-0.182-1.815-0.26c-0.218-0.029-0.436-0.06-0.653-0.086    c-0.606-0.071-1.213-0.132-1.822-0.186c-0.218-0.019-0.434-0.044-0.652-0.061c-0.642-0.051-1.287-0.087-1.933-0.118    c-0.182-0.009-0.362-0.023-0.543-0.03c-0.826-0.032-1.655-0.051-2.488-0.051c-0.834,0-1.663,0.019-2.49,0.051    c-0.17,0.007-0.34,0.02-0.51,0.029c-0.659,0.032-1.316,0.068-1.969,0.12c-0.205,0.016-0.409,0.039-0.616,0.057    c-0.623,0.055-1.245,0.116-1.863,0.19c-0.206,0.025-0.411,0.054-0.617,0.08c-0.62,0.08-1.24,0.167-1.856,0.266    c-0.081,0.015-0.163,0.023-0.244,0.036V295.586z M188.419,463.827H62.806c-18.617,0-33.763-15.146-33.763-33.763    s15.146-33.763,33.763-33.763c3.658,0,7.274,0.591,10.747,1.757c3.98,1.336,8.344,0.884,11.967-1.24    c3.623-2.125,6.147-5.713,6.925-9.84c1.854-9.849,7.909-18.016,16.093-22.819c0.286-0.168,0.579-0.321,0.87-0.481    c0.491-0.269,0.986-0.53,1.491-0.775c0.298-0.145,0.598-0.283,0.899-0.42c0.539-0.241,1.085-0.466,1.637-0.681    c0.272-0.105,0.54-0.216,0.815-0.315c0.805-0.288,1.619-0.552,2.448-0.778c0.179-0.049,0.36-0.083,0.54-0.129    c0.675-0.173,1.358-0.328,2.049-0.459c0.308-0.058,0.619-0.107,0.928-0.157c0.603-0.097,1.208-0.179,1.82-0.244    c0.296-0.032,0.591-0.067,0.889-0.09c0.865-0.068,1.738-0.115,2.618-0.116c0.025,0,0.048-0.003,0.073-0.003    c0.02,0,0.041,0.001,0.061,0.001c0.886,0.001,1.761,0.048,2.631,0.116c0.293,0.023,0.587,0.058,0.879,0.089    c0.616,0.065,1.227,0.147,1.834,0.245c0.305,0.049,0.611,0.097,0.915,0.155c0.697,0.132,1.387,0.289,2.071,0.465    c0.173,0.044,0.347,0.077,0.518,0.125c0.832,0.228,1.651,0.492,2.457,0.781c0.269,0.096,0.53,0.205,0.796,0.308    c0.559,0.216,1.114,0.444,1.658,0.69c0.295,0.132,0.588,0.269,0.88,0.409c0.518,0.251,1.027,0.52,1.531,0.796    c0.276,0.152,0.556,0.298,0.829,0.457c8.192,4.802,14.25,12.974,16.106,22.827c0.777,4.127,3.301,7.715,6.925,9.84    c3.622,2.125,7.984,2.576,11.967,1.24c3.475-1.166,7.091-1.757,10.746-1.757c18.617,0,33.763,15.146,33.763,33.763    S207.036,463.827,188.419,463.827z" fill="#ff2244"/>
	</g>
</g>
<g>
	<g>
		<path d="M512,250.12c0-75.932-61.777-137.708-137.709-137.708S236.583,174.188,236.583,250.12v11.218    c0,1.576,0.258,3.087,0.722,4.508l43.199,215.358c1.362,6.783,7.319,11.665,14.239,11.665h159.1    c6.92,0,12.876-4.882,14.238-11.665l43.199-215.358c0.463-1.42,0.722-2.933,0.722-4.508V250.12H512z M441.943,463.827H306.64    l-25.693-128.086h97.339c8.019,0,14.522-6.501,14.522-14.522s-6.503-14.522-14.522-14.522H275.121l-6.221-31.011h210.781    L441.943,463.827z M265.715,246.642c1.847-58.31,49.825-105.186,108.577-105.186c58.752,0,106.73,46.876,108.576,105.186H265.715z    " fill="#ff2244"/>
	</g>
</g>
<g>
</g>
<g>
</g>
<g>
</g>
<g>
</g>
<g>
</g>
<g>
</g>
<g>
</g>
<g>
</g>
<g>
</g>
<g>
</g>
<g>
</g>
<g>
</g>
<g>
</g>
<g>
</g>
<g>
</g>
</svg>
