<?xml version="1.0"?>
<svg xmlns="http://www.w3.org/2000/svg" xmlns:xlink="http://www.w3.org/1999/xlink" version="1.1" id="Capa_1" x="0px" y="0px" viewBox="0 0 512 512" style="enable-background:new 0 0 512 512;" xml:space="preserve" width="512px" height="512px"><g transform="matrix(-1.83697e-16 -1 1 -1.83697e-16 0 512)"><g>
	<g>
		<path d="M0,93.902v324.195h512V93.902H0z M482,388.099H30v0V194.292h452V388.099z M482,164.292H30v-40.389h452V164.292z" data-original="#000000" class="active-path" data-old_color="#ff2244" fill="#ff2244"/>
	</g>
</g><g>
	<g>
		<path d="M326.116,229.48c-28.857,0-53.142,19.911-59.861,46.714H124.17v52.9h30v-22.9h21.166v22.9h30v-22.9h60.918    c6.719,26.803,31.005,46.714,59.861,46.714c34.029,0,61.714-27.685,61.714-61.714S360.145,229.48,326.116,229.48z     M326.116,322.908c-17.487,0-31.714-14.227-31.714-31.714s14.227-31.714,31.714-31.714s31.714,14.227,31.714,31.714    S343.603,322.908,326.116,322.908z" data-original="#000000" class="active-path" data-old_color="#ff2244" fill="#ff2244"/>
	</g>
</g></g> </svg>
